<svg xmlns="http://www.w3.org/2000/svg" viewBox="0 0 120 120" role="img" aria-label="Blackbird logo">
  <defs>
    <linearGradient id="sky" x1="0" y1="0" x2="0" y2="1">
      <stop offset="0" stop-color="#11151f"/>
      <stop offset="1" stop-color="#0b0e14"/>
    </linearGradient>
  </defs>
  <rect width="120" height="120" rx="24" fill="url(#sky)"/>
  <circle cx="88" cy="34" r="10" fill="#ffe169" opacity="0.9"/>
  <!-- bird body -->
  <path d="M26 78c14 4 26 2 36-6 6-5 10-12 18-13 6-1 12 2 14 8-4-1-8 0-11 3 5 1 9 4 11 9-8-2-15-1-22 3-11 6-24 7-36 3-4-1-8-4-10-10z"
        fill="#7fe0ff"/>
  <!-- wing accent -->
  <path d="M40 66c8 6 18 7 27 2-5 8-14 12-24 10-3-3-4-8-3-12z" fill="#e8eaf0" opacity="0.85"/>
  <!-- eye -->
  <circle cx="74" cy="60" r="2.4" fill="#0b0e14"/>
</svg>
