<svg xmlns="http://www.w3.org/2000/svg" viewBox="0 0 1600 1000" preserveAspectRatio="xMidYMid slice">
  <!-- ===== celestial coordinate grid, drawn as a globe (graticule) ===== -->
  <!-- Dec parallels: equator straight, others bow away from it like the
       latitude rings of a sphere seen head-on. -->
  <g fill="none" stroke="#6EA79D" stroke-opacity="0.15" stroke-width="1">
    <path d="M-120,140 Q800,-40 1720,140" />
    <path d="M-120,260 Q800,140 1720,260" />
    <path d="M-120,380 Q800,320 1720,380" />
    <path d="M-120,500 L1720,500" />
    <path d="M-120,620 Q800,680 1720,620" />
    <path d="M-120,740 Q800,860 1720,740" />
    <path d="M-120,860 Q800,1040 1720,860" />
  </g>
  <!-- RA meridians: longitude arcs converging on the poles above and below,
       central meridian straight, the rest bulging out symmetrically. -->
  <g fill="none" stroke="#6EA79D" stroke-opacity="0.15" stroke-width="1">
    <path d="M800,-320 Q50,500 800,1320" />
    <path d="M800,-320 Q350,500 800,1320" />
    <path d="M800,-320 Q650,500 800,1320" />
    <path d="M800,-320 L800,1320" />
    <path d="M800,-320 Q950,500 800,1320" />
    <path d="M800,-320 Q1250,500 800,1320" />
    <path d="M800,-320 Q1550,500 800,1320" />
  </g>

  <!-- ===== dotted constellation boundaries ===== -->
  <g fill="none" stroke="#6EA79D" stroke-opacity="0.16" stroke-width="1.1" stroke-dasharray="1.5 9">
    <path d="M470,40 C540,300 380,500 520,780 C560,880 500,960 540,1040" />
    <path d="M980,20 C920,240 1060,440 1000,700 C970,860 1040,940 1010,1040" />
    <path d="M-20,540 C360,585 720,505 1120,548 C1360,572 1520,520 1640,552" />
  </g>

  <!-- ===== great circles crossing the globe: ecliptic + galactic equator ===== -->
  <path d="M-120,680 Q800,320 1720,380" fill="none"
        stroke="#C9A24E" stroke-opacity="0.20" stroke-width="2" stroke-linecap="round" />
  <path d="M-120,340 Q800,700 1720,640" fill="none"
        stroke="#6EA79D" stroke-opacity="0.15" stroke-width="1.6" stroke-linecap="round" />

  <!-- ===== deep-sky markers (open circles) ===== -->
  <g fill="none" stroke="#C9A24E" stroke-opacity="0.16" stroke-width="1.1">
    <circle cx="430" cy="300" r="8" />
    <circle cx="1180" cy="640" r="6.5" />
    <circle cx="960" cy="240" r="5.5" />
  </g>

  <!-- ===== dense star field ===== -->
  <g fill="#F3ECD9">
    <circle cx="70"   cy="90"  r="1.4" fill-opacity="0.35" />
    <circle cx="150"  cy="200" r="0.9" fill-opacity="0.20" />
    <circle cx="240"  cy="60"  r="2.0" fill-opacity="0.50" />
    <circle cx="300"  cy="150" r="1.1" fill-opacity="0.25" />
    <circle cx="90"   cy="300" r="1.6" fill-opacity="0.40" />
    <circle cx="200"  cy="380" r="0.9" fill-opacity="0.20" />
    <circle cx="120"  cy="470" r="1.3" fill-opacity="0.30" />
    <circle cx="260"  cy="520" r="2.2" fill-opacity="0.55" />
    <circle cx="60"   cy="620" r="1.0" fill-opacity="0.22" />
    <circle cx="180"  cy="700" r="1.5" fill-opacity="0.35" />
    <circle cx="300"  cy="780" r="0.9" fill-opacity="0.20" />
    <circle cx="100"  cy="880" r="1.8" fill-opacity="0.45" />
    <circle cx="240"  cy="930" r="1.2" fill-opacity="0.28" />
    <circle cx="360"  cy="300" r="1.0" fill-opacity="0.24" />
    <circle cx="340"  cy="650" r="1.4" fill-opacity="0.32" />
    <circle cx="400"  cy="120" r="1.3" fill-opacity="0.30" />
    <circle cx="430"  cy="450" r="2.0" fill-opacity="0.50" />
    <circle cx="380"  cy="850" r="1.1" fill-opacity="0.26" />
    <circle cx="470"  cy="220" r="0.9" fill-opacity="0.20" />
    <circle cx="520"  cy="560" r="1.6" fill-opacity="0.38" />
    <circle cx="500"  cy="720" r="1.0" fill-opacity="0.24" />
    <circle cx="560"  cy="340" r="1.3" fill-opacity="0.30" />
    <circle cx="540"  cy="900" r="1.5" fill-opacity="0.34" />
    <circle cx="600"  cy="150" r="1.1" fill-opacity="0.26" />
    <circle cx="620"  cy="480" r="0.9" fill-opacity="0.20" />
    <circle cx="640"  cy="660" r="2.4" fill-opacity="0.60" />
    <circle cx="600"  cy="820" r="1.2" fill-opacity="0.28" />
    <circle cx="680"  cy="260" r="1.4" fill-opacity="0.32" />
    <circle cx="700"  cy="560" r="1.0" fill-opacity="0.24" />
    <circle cx="720"  cy="900" r="1.3" fill-opacity="0.30" />
    <circle cx="760"  cy="120" r="1.6" fill-opacity="0.38" />
    <circle cx="780"  cy="400" r="0.9" fill-opacity="0.20" />
    <circle cx="800"  cy="700" r="1.2" fill-opacity="0.28" />
    <circle cx="840"  cy="240" r="1.3" fill-opacity="0.30" />
    <circle cx="860"  cy="520" r="1.8" fill-opacity="0.44" />
    <circle cx="820"  cy="860" r="1.0" fill-opacity="0.24" />
    <circle cx="900"  cy="140" r="1.1" fill-opacity="0.26" />
    <circle cx="920"  cy="620" r="1.4" fill-opacity="0.32" />
    <circle cx="940"  cy="860" r="1.2" fill-opacity="0.28" />
    <circle cx="980"  cy="340" r="2.0" fill-opacity="0.50" />
    <circle cx="1000" cy="520" r="0.9" fill-opacity="0.20" />
    <circle cx="1020" cy="760" r="1.3" fill-opacity="0.30" />
    <circle cx="1060" cy="180" r="1.5" fill-opacity="0.34" />
    <circle cx="1080" cy="440" r="1.0" fill-opacity="0.24" />
    <circle cx="1100" cy="900" r="1.4" fill-opacity="0.32" />
    <circle cx="1140" cy="300" r="1.2" fill-opacity="0.28" />
    <circle cx="1160" cy="620" r="1.7" fill-opacity="0.40" />
    <circle cx="1200" cy="120" r="1.0" fill-opacity="0.24" />
    <circle cx="1220" cy="780" r="1.3" fill-opacity="0.30" />
    <circle cx="1260" cy="420" r="1.5" fill-opacity="0.34" />
    <circle cx="1280" cy="560" r="0.9" fill-opacity="0.20" />
    <circle cx="1300" cy="900" r="1.2" fill-opacity="0.28" />
    <circle cx="1340" cy="220" r="1.6" fill-opacity="0.38" />
    <circle cx="1360" cy="680" r="1.1" fill-opacity="0.26" />
    <circle cx="1400" cy="400" r="2.2" fill-opacity="0.55" />
    <circle cx="1420" cy="860" r="1.0" fill-opacity="0.24" />
    <circle cx="1460" cy="140" r="1.3" fill-opacity="0.30" />
    <circle cx="1480" cy="540" r="1.4" fill-opacity="0.32" />
    <circle cx="1500" cy="760" r="1.0" fill-opacity="0.24" />
    <circle cx="1540" cy="300" r="1.5" fill-opacity="0.34" />
    <circle cx="1560" cy="640" r="1.2" fill-opacity="0.28" />
    <circle cx="1520" cy="940" r="1.0" fill-opacity="0.22" />
  </g>

  <!-- ===== named bright stars (starbursts) ===== -->
  <g stroke="#F3ECD9" stroke-linecap="round">
    <g transform="translate(1250,700)">
      <circle r="11" fill="#F3ECD9" fill-opacity="0.10" stroke="none" />
      <circle r="3"  fill="#FFF7E4" fill-opacity="0.9" stroke="none" />
      <path d="M0,-17 L0,-6 M0,17 L0,6 M-17,0 L-6,0 M17,0 L6,0 M-11,-11 L-4,-4 M11,11 L4,4 M11,-11 L4,-4 M-11,11 L-4,4"
            stroke-opacity="0.45" stroke-width="0.9" />
    </g>
    <g transform="translate(360,300)">
      <circle r="9"  fill="#F3ECD9" fill-opacity="0.10" stroke="none" />
      <circle r="2.6" fill="#FFF7E4" fill-opacity="0.9" stroke="none" />
      <path d="M0,-14 L0,-5 M0,14 L0,5 M-14,0 L-5,0 M14,0 L5,0 M-9,-9 L-3.5,-3.5 M9,9 L3.5,3.5 M9,-9 L3.5,-3.5 M-9,9 L-3.5,3.5"
            stroke-opacity="0.4" stroke-width="0.8" />
    </g>
  </g>
</svg>
